<mxfile host="Electron" agent="Mozilla/5.0 (Windows NT 10.0; Win64; x64) AppleWebKit/537.36 (KHTML, like Gecko) draw.io/28.1.2 Chrome/138.0.7204.243 Electron/37.4.0 Safari/537.36" version="28.1.2">
  <diagram name="Page-1" id="tmevYUMOVZBxQ34sHsYM">
    <mxGraphModel dx="3970" dy="1193" grid="1" gridSize="10" guides="1" tooltips="1" connect="1" arrows="1" fold="1" page="1" pageScale="1" pageWidth="1920" pageHeight="1200" math="0" shadow="0">
      <root>
        <mxCell id="0" />
        <mxCell id="1" parent="0" />
        <mxCell id="oAILpBnuyXSPx2heT35A-1" value="&lt;font&gt;&lt;b&gt;Sales Data Mart&lt;/b&gt; (Star Schema)&lt;/font&gt;" style="text;html=1;align=center;verticalAlign=middle;resizable=0;points=[];autosize=1;strokeColor=none;fillColor=none;fontSize=26;" parent="1" vertex="1">
          <mxGeometry x="-1900" y="40" width="390" height="40" as="geometry" />
        </mxCell>
        <mxCell id="oAILpBnuyXSPx2heT35A-14" value="&lt;font style=&quot;font-size: 16px;&quot;&gt;gold.dim_customers&lt;/font&gt;" style="shape=table;startSize=40;container=1;collapsible=1;childLayout=tableLayout;fixedRows=1;rowLines=0;fontStyle=1;align=center;resizeLast=1;html=1;fillColor=#fff2cc;strokeColor=#d6b656;rounded=1;strokeWidth=2;" parent="1" vertex="1">
          <mxGeometry x="-1630" y="160" width="240" height="440" as="geometry" />
        </mxCell>
        <mxCell id="oAILpBnuyXSPx2heT35A-15" value="" style="shape=tableRow;horizontal=0;startSize=0;swimlaneHead=0;swimlaneBody=0;fillColor=none;collapsible=0;dropTarget=0;points=[[0,0.5],[1,0.5]];portConstraint=eastwest;top=0;left=0;right=0;bottom=1;fontSize=16;" parent="oAILpBnuyXSPx2heT35A-14" vertex="1">
          <mxGeometry y="40" width="240" height="40" as="geometry" />
        </mxCell>
        <mxCell id="oAILpBnuyXSPx2heT35A-16" value="PK" style="shape=partialRectangle;connectable=0;fillColor=none;top=0;left=0;bottom=0;right=0;fontStyle=1;overflow=hidden;whiteSpace=wrap;html=1;fontSize=16;" parent="oAILpBnuyXSPx2heT35A-15" vertex="1">
          <mxGeometry width="30" height="40" as="geometry">
            <mxRectangle width="30" height="40" as="alternateBounds" />
          </mxGeometry>
        </mxCell>
        <mxCell id="oAILpBnuyXSPx2heT35A-17" value="customer_key" style="shape=partialRectangle;connectable=0;fillColor=none;top=0;left=0;bottom=0;right=0;align=left;spacingLeft=6;fontStyle=5;overflow=hidden;whiteSpace=wrap;html=1;fontSize=16;" parent="oAILpBnuyXSPx2heT35A-15" vertex="1">
          <mxGeometry x="30" width="210" height="40" as="geometry">
            <mxRectangle width="210" height="40" as="alternateBounds" />
          </mxGeometry>
        </mxCell>
        <mxCell id="oAILpBnuyXSPx2heT35A-18" value="" style="shape=tableRow;horizontal=0;startSize=0;swimlaneHead=0;swimlaneBody=0;fillColor=none;collapsible=0;dropTarget=0;points=[[0,0.5],[1,0.5]];portConstraint=eastwest;top=0;left=0;right=0;bottom=0;fontSize=16;" parent="oAILpBnuyXSPx2heT35A-14" vertex="1">
          <mxGeometry y="80" width="240" height="39" as="geometry" />
        </mxCell>
        <mxCell id="oAILpBnuyXSPx2heT35A-19" value="" style="shape=partialRectangle;connectable=0;fillColor=none;top=0;left=0;bottom=0;right=0;editable=1;overflow=hidden;whiteSpace=wrap;html=1;fontSize=16;" parent="oAILpBnuyXSPx2heT35A-18" vertex="1">
          <mxGeometry width="30" height="39" as="geometry">
            <mxRectangle width="30" height="39" as="alternateBounds" />
          </mxGeometry>
        </mxCell>
        <mxCell id="oAILpBnuyXSPx2heT35A-20" value="&lt;span&gt;&lt;b&gt;customer_id&lt;/b&gt;&lt;/span&gt;" style="shape=partialRectangle;connectable=0;fillColor=none;top=0;left=0;bottom=0;right=0;align=left;spacingLeft=6;overflow=hidden;whiteSpace=wrap;html=1;fontSize=16;" parent="oAILpBnuyXSPx2heT35A-18" vertex="1">
          <mxGeometry x="30" width="210" height="39" as="geometry">
            <mxRectangle width="210" height="39" as="alternateBounds" />
          </mxGeometry>
        </mxCell>
        <mxCell id="oAILpBnuyXSPx2heT35A-21" value="" style="shape=tableRow;horizontal=0;startSize=0;swimlaneHead=0;swimlaneBody=0;fillColor=none;collapsible=0;dropTarget=0;points=[[0,0.5],[1,0.5]];portConstraint=eastwest;top=0;left=0;right=0;bottom=0;fontSize=16;" parent="oAILpBnuyXSPx2heT35A-14" vertex="1">
          <mxGeometry y="119" width="240" height="39" as="geometry" />
        </mxCell>
        <mxCell id="oAILpBnuyXSPx2heT35A-22" value="" style="shape=partialRectangle;connectable=0;fillColor=none;top=0;left=0;bottom=0;right=0;editable=1;overflow=hidden;whiteSpace=wrap;html=1;fontSize=16;" parent="oAILpBnuyXSPx2heT35A-21" vertex="1">
          <mxGeometry width="30" height="39" as="geometry">
            <mxRectangle width="30" height="39" as="alternateBounds" />
          </mxGeometry>
        </mxCell>
        <mxCell id="oAILpBnuyXSPx2heT35A-23" value="&lt;b&gt;customer_number&lt;/b&gt;" style="shape=partialRectangle;connectable=0;fillColor=none;top=0;left=0;bottom=0;right=0;align=left;spacingLeft=6;overflow=hidden;whiteSpace=wrap;html=1;fontSize=16;" parent="oAILpBnuyXSPx2heT35A-21" vertex="1">
          <mxGeometry x="30" width="210" height="39" as="geometry">
            <mxRectangle width="210" height="39" as="alternateBounds" />
          </mxGeometry>
        </mxCell>
        <mxCell id="oAILpBnuyXSPx2heT35A-24" value="" style="shape=tableRow;horizontal=0;startSize=0;swimlaneHead=0;swimlaneBody=0;fillColor=none;collapsible=0;dropTarget=0;points=[[0,0.5],[1,0.5]];portConstraint=eastwest;top=0;left=0;right=0;bottom=0;fontSize=16;" parent="oAILpBnuyXSPx2heT35A-14" vertex="1">
          <mxGeometry y="158" width="240" height="39" as="geometry" />
        </mxCell>
        <mxCell id="oAILpBnuyXSPx2heT35A-25" value="" style="shape=partialRectangle;connectable=0;fillColor=none;top=0;left=0;bottom=0;right=0;editable=1;overflow=hidden;whiteSpace=wrap;html=1;fontSize=16;" parent="oAILpBnuyXSPx2heT35A-24" vertex="1">
          <mxGeometry width="30" height="39" as="geometry">
            <mxRectangle width="30" height="39" as="alternateBounds" />
          </mxGeometry>
        </mxCell>
        <mxCell id="oAILpBnuyXSPx2heT35A-26" value="&lt;b&gt;first_name&lt;/b&gt;" style="shape=partialRectangle;connectable=0;fillColor=none;top=0;left=0;bottom=0;right=0;align=left;spacingLeft=6;overflow=hidden;whiteSpace=wrap;html=1;fontSize=16;" parent="oAILpBnuyXSPx2heT35A-24" vertex="1">
          <mxGeometry x="30" width="210" height="39" as="geometry">
            <mxRectangle width="210" height="39" as="alternateBounds" />
          </mxGeometry>
        </mxCell>
        <mxCell id="oAILpBnuyXSPx2heT35A-27" value="" style="shape=tableRow;horizontal=0;startSize=0;swimlaneHead=0;swimlaneBody=0;fillColor=none;collapsible=0;dropTarget=0;points=[[0,0.5],[1,0.5]];portConstraint=eastwest;top=0;left=0;right=0;bottom=0;fontSize=16;" parent="oAILpBnuyXSPx2heT35A-14" vertex="1">
          <mxGeometry y="197" width="240" height="39" as="geometry" />
        </mxCell>
        <mxCell id="oAILpBnuyXSPx2heT35A-28" value="" style="shape=partialRectangle;connectable=0;fillColor=none;top=0;left=0;bottom=0;right=0;editable=1;overflow=hidden;whiteSpace=wrap;html=1;fontSize=16;" parent="oAILpBnuyXSPx2heT35A-27" vertex="1">
          <mxGeometry width="30" height="39" as="geometry">
            <mxRectangle width="30" height="39" as="alternateBounds" />
          </mxGeometry>
        </mxCell>
        <mxCell id="oAILpBnuyXSPx2heT35A-29" value="&lt;b&gt;last_name&lt;/b&gt;" style="shape=partialRectangle;connectable=0;fillColor=none;top=0;left=0;bottom=0;right=0;align=left;spacingLeft=6;overflow=hidden;whiteSpace=wrap;html=1;fontSize=16;" parent="oAILpBnuyXSPx2heT35A-27" vertex="1">
          <mxGeometry x="30" width="210" height="39" as="geometry">
            <mxRectangle width="210" height="39" as="alternateBounds" />
          </mxGeometry>
        </mxCell>
        <mxCell id="oAILpBnuyXSPx2heT35A-30" value="" style="shape=tableRow;horizontal=0;startSize=0;swimlaneHead=0;swimlaneBody=0;fillColor=none;collapsible=0;dropTarget=0;points=[[0,0.5],[1,0.5]];portConstraint=eastwest;top=0;left=0;right=0;bottom=0;fontSize=16;" parent="oAILpBnuyXSPx2heT35A-14" vertex="1">
          <mxGeometry y="236" width="240" height="39" as="geometry" />
        </mxCell>
        <mxCell id="oAILpBnuyXSPx2heT35A-31" value="" style="shape=partialRectangle;connectable=0;fillColor=none;top=0;left=0;bottom=0;right=0;editable=1;overflow=hidden;whiteSpace=wrap;html=1;fontSize=16;" parent="oAILpBnuyXSPx2heT35A-30" vertex="1">
          <mxGeometry width="30" height="39" as="geometry">
            <mxRectangle width="30" height="39" as="alternateBounds" />
          </mxGeometry>
        </mxCell>
        <mxCell id="oAILpBnuyXSPx2heT35A-32" value="&lt;b&gt;country&lt;/b&gt;" style="shape=partialRectangle;connectable=0;fillColor=none;top=0;left=0;bottom=0;right=0;align=left;spacingLeft=6;overflow=hidden;whiteSpace=wrap;html=1;fontSize=16;" parent="oAILpBnuyXSPx2heT35A-30" vertex="1">
          <mxGeometry x="30" width="210" height="39" as="geometry">
            <mxRectangle width="210" height="39" as="alternateBounds" />
          </mxGeometry>
        </mxCell>
        <mxCell id="oAILpBnuyXSPx2heT35A-33" value="" style="shape=tableRow;horizontal=0;startSize=0;swimlaneHead=0;swimlaneBody=0;fillColor=none;collapsible=0;dropTarget=0;points=[[0,0.5],[1,0.5]];portConstraint=eastwest;top=0;left=0;right=0;bottom=0;fontSize=16;" parent="oAILpBnuyXSPx2heT35A-14" vertex="1">
          <mxGeometry y="275" width="240" height="39" as="geometry" />
        </mxCell>
        <mxCell id="oAILpBnuyXSPx2heT35A-34" value="" style="shape=partialRectangle;connectable=0;fillColor=none;top=0;left=0;bottom=0;right=0;editable=1;overflow=hidden;whiteSpace=wrap;html=1;fontSize=16;" parent="oAILpBnuyXSPx2heT35A-33" vertex="1">
          <mxGeometry width="30" height="39" as="geometry">
            <mxRectangle width="30" height="39" as="alternateBounds" />
          </mxGeometry>
        </mxCell>
        <mxCell id="oAILpBnuyXSPx2heT35A-35" value="&lt;b&gt;marital_status&lt;/b&gt;" style="shape=partialRectangle;connectable=0;fillColor=none;top=0;left=0;bottom=0;right=0;align=left;spacingLeft=6;overflow=hidden;whiteSpace=wrap;html=1;fontSize=16;" parent="oAILpBnuyXSPx2heT35A-33" vertex="1">
          <mxGeometry x="30" width="210" height="39" as="geometry">
            <mxRectangle width="210" height="39" as="alternateBounds" />
          </mxGeometry>
        </mxCell>
        <mxCell id="oAILpBnuyXSPx2heT35A-36" value="" style="shape=tableRow;horizontal=0;startSize=0;swimlaneHead=0;swimlaneBody=0;fillColor=none;collapsible=0;dropTarget=0;points=[[0,0.5],[1,0.5]];portConstraint=eastwest;top=0;left=0;right=0;bottom=0;fontSize=16;" parent="oAILpBnuyXSPx2heT35A-14" vertex="1">
          <mxGeometry y="314" width="240" height="39" as="geometry" />
        </mxCell>
        <mxCell id="oAILpBnuyXSPx2heT35A-37" value="" style="shape=partialRectangle;connectable=0;fillColor=none;top=0;left=0;bottom=0;right=0;editable=1;overflow=hidden;whiteSpace=wrap;html=1;fontSize=16;" parent="oAILpBnuyXSPx2heT35A-36" vertex="1">
          <mxGeometry width="30" height="39" as="geometry">
            <mxRectangle width="30" height="39" as="alternateBounds" />
          </mxGeometry>
        </mxCell>
        <mxCell id="oAILpBnuyXSPx2heT35A-38" value="&lt;b&gt;gender&lt;/b&gt;" style="shape=partialRectangle;connectable=0;fillColor=none;top=0;left=0;bottom=0;right=0;align=left;spacingLeft=6;overflow=hidden;whiteSpace=wrap;html=1;fontSize=16;" parent="oAILpBnuyXSPx2heT35A-36" vertex="1">
          <mxGeometry x="30" width="210" height="39" as="geometry">
            <mxRectangle width="210" height="39" as="alternateBounds" />
          </mxGeometry>
        </mxCell>
        <mxCell id="oAILpBnuyXSPx2heT35A-39" value="" style="shape=tableRow;horizontal=0;startSize=0;swimlaneHead=0;swimlaneBody=0;fillColor=none;collapsible=0;dropTarget=0;points=[[0,0.5],[1,0.5]];portConstraint=eastwest;top=0;left=0;right=0;bottom=0;fontSize=16;" parent="oAILpBnuyXSPx2heT35A-14" vertex="1">
          <mxGeometry y="353" width="240" height="39" as="geometry" />
        </mxCell>
        <mxCell id="oAILpBnuyXSPx2heT35A-40" value="" style="shape=partialRectangle;connectable=0;fillColor=none;top=0;left=0;bottom=0;right=0;editable=1;overflow=hidden;whiteSpace=wrap;html=1;fontSize=16;" parent="oAILpBnuyXSPx2heT35A-39" vertex="1">
          <mxGeometry width="30" height="39" as="geometry">
            <mxRectangle width="30" height="39" as="alternateBounds" />
          </mxGeometry>
        </mxCell>
        <mxCell id="oAILpBnuyXSPx2heT35A-41" value="&lt;div&gt;&lt;b&gt;birthdate&lt;/b&gt;&lt;/div&gt;" style="shape=partialRectangle;connectable=0;fillColor=none;top=0;left=0;bottom=0;right=0;align=left;spacingLeft=6;overflow=hidden;whiteSpace=wrap;html=1;fontSize=16;" parent="oAILpBnuyXSPx2heT35A-39" vertex="1">
          <mxGeometry x="30" width="210" height="39" as="geometry">
            <mxRectangle width="210" height="39" as="alternateBounds" />
          </mxGeometry>
        </mxCell>
        <mxCell id="oAILpBnuyXSPx2heT35A-42" value="" style="shape=tableRow;horizontal=0;startSize=0;swimlaneHead=0;swimlaneBody=0;fillColor=none;collapsible=0;dropTarget=0;points=[[0,0.5],[1,0.5]];portConstraint=eastwest;top=0;left=0;right=0;bottom=0;fontSize=16;" parent="oAILpBnuyXSPx2heT35A-14" vertex="1">
          <mxGeometry y="392" width="240" height="39" as="geometry" />
        </mxCell>
        <mxCell id="oAILpBnuyXSPx2heT35A-43" value="" style="shape=partialRectangle;connectable=0;fillColor=none;top=0;left=0;bottom=0;right=0;editable=1;overflow=hidden;whiteSpace=wrap;html=1;fontSize=16;" parent="oAILpBnuyXSPx2heT35A-42" vertex="1">
          <mxGeometry width="30" height="39" as="geometry">
            <mxRectangle width="30" height="39" as="alternateBounds" />
          </mxGeometry>
        </mxCell>
        <mxCell id="oAILpBnuyXSPx2heT35A-44" value="&lt;div&gt;&lt;b&gt;country&lt;/b&gt;&lt;/div&gt;" style="shape=partialRectangle;connectable=0;fillColor=none;top=0;left=0;bottom=0;right=0;align=left;spacingLeft=6;overflow=hidden;whiteSpace=wrap;html=1;fontSize=16;" parent="oAILpBnuyXSPx2heT35A-42" vertex="1">
          <mxGeometry x="30" width="210" height="39" as="geometry">
            <mxRectangle width="210" height="39" as="alternateBounds" />
          </mxGeometry>
        </mxCell>
        <mxCell id="oAILpBnuyXSPx2heT35A-45" value="&lt;font style=&quot;font-size: 16px;&quot;&gt;gold.dim_products&lt;/font&gt;" style="shape=table;startSize=40;container=1;collapsible=1;childLayout=tableLayout;fixedRows=1;rowLines=0;fontStyle=1;align=center;resizeLast=1;html=1;fillColor=#fff2cc;strokeColor=#d6b656;rounded=1;perimeterSpacing=1;strokeWidth=2;" parent="1" vertex="1">
          <mxGeometry x="-790" y="160" width="280" height="560" as="geometry" />
        </mxCell>
        <mxCell id="oAILpBnuyXSPx2heT35A-46" value="" style="shape=tableRow;horizontal=0;startSize=0;swimlaneHead=0;swimlaneBody=0;fillColor=none;collapsible=0;dropTarget=0;points=[[0,0.5],[1,0.5]];portConstraint=eastwest;top=0;left=0;right=0;bottom=1;fontSize=16;" parent="oAILpBnuyXSPx2heT35A-45" vertex="1">
          <mxGeometry y="40" width="280" height="40" as="geometry" />
        </mxCell>
        <mxCell id="oAILpBnuyXSPx2heT35A-47" value="PK" style="shape=partialRectangle;connectable=0;fillColor=none;top=0;left=0;bottom=0;right=0;fontStyle=1;overflow=hidden;whiteSpace=wrap;html=1;fontSize=16;" parent="oAILpBnuyXSPx2heT35A-46" vertex="1">
          <mxGeometry width="30" height="40" as="geometry">
            <mxRectangle width="30" height="40" as="alternateBounds" />
          </mxGeometry>
        </mxCell>
        <mxCell id="oAILpBnuyXSPx2heT35A-48" value="product_key" style="shape=partialRectangle;connectable=0;fillColor=none;top=0;left=0;bottom=0;right=0;align=left;spacingLeft=6;fontStyle=5;overflow=hidden;whiteSpace=wrap;html=1;fontSize=16;" parent="oAILpBnuyXSPx2heT35A-46" vertex="1">
          <mxGeometry x="30" width="250" height="40" as="geometry">
            <mxRectangle width="250" height="40" as="alternateBounds" />
          </mxGeometry>
        </mxCell>
        <mxCell id="oAILpBnuyXSPx2heT35A-49" value="" style="shape=tableRow;horizontal=0;startSize=0;swimlaneHead=0;swimlaneBody=0;fillColor=none;collapsible=0;dropTarget=0;points=[[0,0.5],[1,0.5]];portConstraint=eastwest;top=0;left=0;right=0;bottom=0;fontSize=16;" parent="oAILpBnuyXSPx2heT35A-45" vertex="1">
          <mxGeometry y="80" width="280" height="39" as="geometry" />
        </mxCell>
        <mxCell id="oAILpBnuyXSPx2heT35A-50" value="" style="shape=partialRectangle;connectable=0;fillColor=none;top=0;left=0;bottom=0;right=0;editable=1;overflow=hidden;whiteSpace=wrap;html=1;fontSize=16;" parent="oAILpBnuyXSPx2heT35A-49" vertex="1">
          <mxGeometry width="30" height="39" as="geometry">
            <mxRectangle width="30" height="39" as="alternateBounds" />
          </mxGeometry>
        </mxCell>
        <mxCell id="oAILpBnuyXSPx2heT35A-51" value="&lt;b&gt;product_id&lt;/b&gt;" style="shape=partialRectangle;connectable=0;fillColor=none;top=0;left=0;bottom=0;right=0;align=left;spacingLeft=6;overflow=hidden;whiteSpace=wrap;html=1;fontSize=16;" parent="oAILpBnuyXSPx2heT35A-49" vertex="1">
          <mxGeometry x="30" width="250" height="39" as="geometry">
            <mxRectangle width="250" height="39" as="alternateBounds" />
          </mxGeometry>
        </mxCell>
        <mxCell id="eyJGhXYJmyUUGj0ul0_u-5" value="" style="shape=tableRow;horizontal=0;startSize=0;swimlaneHead=0;swimlaneBody=0;fillColor=none;collapsible=0;dropTarget=0;points=[[0,0.5],[1,0.5]];portConstraint=eastwest;top=0;left=0;right=0;bottom=0;fontSize=16;" parent="oAILpBnuyXSPx2heT35A-45" vertex="1">
          <mxGeometry y="119" width="280" height="39" as="geometry" />
        </mxCell>
        <mxCell id="eyJGhXYJmyUUGj0ul0_u-6" value="" style="shape=partialRectangle;connectable=0;fillColor=none;top=0;left=0;bottom=0;right=0;editable=1;overflow=hidden;whiteSpace=wrap;html=1;fontSize=16;" parent="eyJGhXYJmyUUGj0ul0_u-5" vertex="1">
          <mxGeometry width="30" height="39" as="geometry">
            <mxRectangle width="30" height="39" as="alternateBounds" />
          </mxGeometry>
        </mxCell>
        <mxCell id="eyJGhXYJmyUUGj0ul0_u-7" value="&lt;b&gt;product_number&lt;/b&gt;" style="shape=partialRectangle;connectable=0;fillColor=none;top=0;left=0;bottom=0;right=0;align=left;spacingLeft=6;overflow=hidden;whiteSpace=wrap;html=1;fontSize=16;" parent="eyJGhXYJmyUUGj0ul0_u-5" vertex="1">
          <mxGeometry x="30" width="250" height="39" as="geometry">
            <mxRectangle width="250" height="39" as="alternateBounds" />
          </mxGeometry>
        </mxCell>
        <mxCell id="oAILpBnuyXSPx2heT35A-144" value="" style="shape=tableRow;horizontal=0;startSize=0;swimlaneHead=0;swimlaneBody=0;fillColor=none;collapsible=0;dropTarget=0;points=[[0,0.5],[1,0.5]];portConstraint=eastwest;top=0;left=0;right=0;bottom=0;fontSize=16;" parent="oAILpBnuyXSPx2heT35A-45" vertex="1">
          <mxGeometry y="158" width="280" height="39" as="geometry" />
        </mxCell>
        <mxCell id="oAILpBnuyXSPx2heT35A-145" value="" style="shape=partialRectangle;connectable=0;fillColor=none;top=0;left=0;bottom=0;right=0;editable=1;overflow=hidden;whiteSpace=wrap;html=1;fontSize=16;" parent="oAILpBnuyXSPx2heT35A-144" vertex="1">
          <mxGeometry width="30" height="39" as="geometry">
            <mxRectangle width="30" height="39" as="alternateBounds" />
          </mxGeometry>
        </mxCell>
        <mxCell id="oAILpBnuyXSPx2heT35A-146" value="&lt;b&gt;product_number&lt;/b&gt;" style="shape=partialRectangle;connectable=0;fillColor=none;top=0;left=0;bottom=0;right=0;align=left;spacingLeft=6;overflow=hidden;whiteSpace=wrap;html=1;fontSize=16;" parent="oAILpBnuyXSPx2heT35A-144" vertex="1">
          <mxGeometry x="30" width="250" height="39" as="geometry">
            <mxRectangle width="250" height="39" as="alternateBounds" />
          </mxGeometry>
        </mxCell>
        <mxCell id="oAILpBnuyXSPx2heT35A-52" value="" style="shape=tableRow;horizontal=0;startSize=0;swimlaneHead=0;swimlaneBody=0;fillColor=none;collapsible=0;dropTarget=0;points=[[0,0.5],[1,0.5]];portConstraint=eastwest;top=0;left=0;right=0;bottom=0;fontSize=16;" parent="oAILpBnuyXSPx2heT35A-45" vertex="1">
          <mxGeometry y="197" width="280" height="39" as="geometry" />
        </mxCell>
        <mxCell id="oAILpBnuyXSPx2heT35A-53" value="" style="shape=partialRectangle;connectable=0;fillColor=none;top=0;left=0;bottom=0;right=0;editable=1;overflow=hidden;whiteSpace=wrap;html=1;fontSize=16;" parent="oAILpBnuyXSPx2heT35A-52" vertex="1">
          <mxGeometry width="30" height="39" as="geometry">
            <mxRectangle width="30" height="39" as="alternateBounds" />
          </mxGeometry>
        </mxCell>
        <mxCell id="oAILpBnuyXSPx2heT35A-54" value="&lt;b&gt;product_number&lt;/b&gt;" style="shape=partialRectangle;connectable=0;fillColor=none;top=0;left=0;bottom=0;right=0;align=left;spacingLeft=6;overflow=hidden;whiteSpace=wrap;html=1;fontSize=16;" parent="oAILpBnuyXSPx2heT35A-52" vertex="1">
          <mxGeometry x="30" width="250" height="39" as="geometry">
            <mxRectangle width="250" height="39" as="alternateBounds" />
          </mxGeometry>
        </mxCell>
        <mxCell id="oAILpBnuyXSPx2heT35A-55" value="" style="shape=tableRow;horizontal=0;startSize=0;swimlaneHead=0;swimlaneBody=0;fillColor=none;collapsible=0;dropTarget=0;points=[[0,0.5],[1,0.5]];portConstraint=eastwest;top=0;left=0;right=0;bottom=0;fontSize=16;" parent="oAILpBnuyXSPx2heT35A-45" vertex="1">
          <mxGeometry y="236" width="280" height="39" as="geometry" />
        </mxCell>
        <mxCell id="oAILpBnuyXSPx2heT35A-56" value="" style="shape=partialRectangle;connectable=0;fillColor=none;top=0;left=0;bottom=0;right=0;editable=1;overflow=hidden;whiteSpace=wrap;html=1;fontSize=16;" parent="oAILpBnuyXSPx2heT35A-55" vertex="1">
          <mxGeometry width="30" height="39" as="geometry">
            <mxRectangle width="30" height="39" as="alternateBounds" />
          </mxGeometry>
        </mxCell>
        <mxCell id="oAILpBnuyXSPx2heT35A-57" value="&lt;b&gt;product_name&lt;/b&gt;" style="shape=partialRectangle;connectable=0;fillColor=none;top=0;left=0;bottom=0;right=0;align=left;spacingLeft=6;overflow=hidden;whiteSpace=wrap;html=1;fontSize=16;" parent="oAILpBnuyXSPx2heT35A-55" vertex="1">
          <mxGeometry x="30" width="250" height="39" as="geometry">
            <mxRectangle width="250" height="39" as="alternateBounds" />
          </mxGeometry>
        </mxCell>
        <mxCell id="oAILpBnuyXSPx2heT35A-58" value="" style="shape=tableRow;horizontal=0;startSize=0;swimlaneHead=0;swimlaneBody=0;fillColor=none;collapsible=0;dropTarget=0;points=[[0,0.5],[1,0.5]];portConstraint=eastwest;top=0;left=0;right=0;bottom=0;fontSize=16;" parent="oAILpBnuyXSPx2heT35A-45" vertex="1">
          <mxGeometry y="275" width="280" height="39" as="geometry" />
        </mxCell>
        <mxCell id="oAILpBnuyXSPx2heT35A-59" value="" style="shape=partialRectangle;connectable=0;fillColor=none;top=0;left=0;bottom=0;right=0;editable=1;overflow=hidden;whiteSpace=wrap;html=1;fontSize=16;" parent="oAILpBnuyXSPx2heT35A-58" vertex="1">
          <mxGeometry width="30" height="39" as="geometry">
            <mxRectangle width="30" height="39" as="alternateBounds" />
          </mxGeometry>
        </mxCell>
        <mxCell id="oAILpBnuyXSPx2heT35A-60" value="&lt;b&gt;category_id&lt;/b&gt;" style="shape=partialRectangle;connectable=0;fillColor=none;top=0;left=0;bottom=0;right=0;align=left;spacingLeft=6;overflow=hidden;whiteSpace=wrap;html=1;fontSize=16;" parent="oAILpBnuyXSPx2heT35A-58" vertex="1">
          <mxGeometry x="30" width="250" height="39" as="geometry">
            <mxRectangle width="250" height="39" as="alternateBounds" />
          </mxGeometry>
        </mxCell>
        <mxCell id="oAILpBnuyXSPx2heT35A-61" value="" style="shape=tableRow;horizontal=0;startSize=0;swimlaneHead=0;swimlaneBody=0;fillColor=none;collapsible=0;dropTarget=0;points=[[0,0.5],[1,0.5]];portConstraint=eastwest;top=0;left=0;right=0;bottom=0;fontSize=16;" parent="oAILpBnuyXSPx2heT35A-45" vertex="1">
          <mxGeometry y="314" width="280" height="39" as="geometry" />
        </mxCell>
        <mxCell id="oAILpBnuyXSPx2heT35A-62" value="" style="shape=partialRectangle;connectable=0;fillColor=none;top=0;left=0;bottom=0;right=0;editable=1;overflow=hidden;whiteSpace=wrap;html=1;fontSize=16;" parent="oAILpBnuyXSPx2heT35A-61" vertex="1">
          <mxGeometry width="30" height="39" as="geometry">
            <mxRectangle width="30" height="39" as="alternateBounds" />
          </mxGeometry>
        </mxCell>
        <mxCell id="oAILpBnuyXSPx2heT35A-63" value="&lt;b&gt;category&lt;/b&gt;" style="shape=partialRectangle;connectable=0;fillColor=none;top=0;left=0;bottom=0;right=0;align=left;spacingLeft=6;overflow=hidden;whiteSpace=wrap;html=1;fontSize=16;" parent="oAILpBnuyXSPx2heT35A-61" vertex="1">
          <mxGeometry x="30" width="250" height="39" as="geometry">
            <mxRectangle width="250" height="39" as="alternateBounds" />
          </mxGeometry>
        </mxCell>
        <mxCell id="oAILpBnuyXSPx2heT35A-64" value="" style="shape=tableRow;horizontal=0;startSize=0;swimlaneHead=0;swimlaneBody=0;fillColor=none;collapsible=0;dropTarget=0;points=[[0,0.5],[1,0.5]];portConstraint=eastwest;top=0;left=0;right=0;bottom=0;fontSize=16;" parent="oAILpBnuyXSPx2heT35A-45" vertex="1">
          <mxGeometry y="353" width="280" height="39" as="geometry" />
        </mxCell>
        <mxCell id="oAILpBnuyXSPx2heT35A-65" value="" style="shape=partialRectangle;connectable=0;fillColor=none;top=0;left=0;bottom=0;right=0;editable=1;overflow=hidden;whiteSpace=wrap;html=1;fontSize=16;" parent="oAILpBnuyXSPx2heT35A-64" vertex="1">
          <mxGeometry width="30" height="39" as="geometry">
            <mxRectangle width="30" height="39" as="alternateBounds" />
          </mxGeometry>
        </mxCell>
        <mxCell id="oAILpBnuyXSPx2heT35A-66" value="&lt;b&gt;subcategory&lt;/b&gt;" style="shape=partialRectangle;connectable=0;fillColor=none;top=0;left=0;bottom=0;right=0;align=left;spacingLeft=6;overflow=hidden;whiteSpace=wrap;html=1;fontSize=16;" parent="oAILpBnuyXSPx2heT35A-64" vertex="1">
          <mxGeometry x="30" width="250" height="39" as="geometry">
            <mxRectangle width="250" height="39" as="alternateBounds" />
          </mxGeometry>
        </mxCell>
        <mxCell id="oAILpBnuyXSPx2heT35A-67" value="" style="shape=tableRow;horizontal=0;startSize=0;swimlaneHead=0;swimlaneBody=0;fillColor=none;collapsible=0;dropTarget=0;points=[[0,0.5],[1,0.5]];portConstraint=eastwest;top=0;left=0;right=0;bottom=0;fontSize=16;" parent="oAILpBnuyXSPx2heT35A-45" vertex="1">
          <mxGeometry y="392" width="280" height="39" as="geometry" />
        </mxCell>
        <mxCell id="oAILpBnuyXSPx2heT35A-68" value="" style="shape=partialRectangle;connectable=0;fillColor=none;top=0;left=0;bottom=0;right=0;editable=1;overflow=hidden;whiteSpace=wrap;html=1;fontSize=16;" parent="oAILpBnuyXSPx2heT35A-67" vertex="1">
          <mxGeometry width="30" height="39" as="geometry">
            <mxRectangle width="30" height="39" as="alternateBounds" />
          </mxGeometry>
        </mxCell>
        <mxCell id="oAILpBnuyXSPx2heT35A-69" value="&lt;b&gt;maintenance&lt;/b&gt;" style="shape=partialRectangle;connectable=0;fillColor=none;top=0;left=0;bottom=0;right=0;align=left;spacingLeft=6;overflow=hidden;whiteSpace=wrap;html=1;fontSize=16;strokeWidth=1;perimeterSpacing=1;" parent="oAILpBnuyXSPx2heT35A-67" vertex="1">
          <mxGeometry x="30" width="250" height="39" as="geometry">
            <mxRectangle width="250" height="39" as="alternateBounds" />
          </mxGeometry>
        </mxCell>
        <mxCell id="oAILpBnuyXSPx2heT35A-70" value="" style="shape=tableRow;horizontal=0;startSize=0;swimlaneHead=0;swimlaneBody=0;fillColor=none;collapsible=0;dropTarget=0;points=[[0,0.5],[1,0.5]];portConstraint=eastwest;top=0;left=0;right=0;bottom=0;fontSize=16;" parent="oAILpBnuyXSPx2heT35A-45" vertex="1">
          <mxGeometry y="431" width="280" height="39" as="geometry" />
        </mxCell>
        <mxCell id="oAILpBnuyXSPx2heT35A-71" value="" style="shape=partialRectangle;connectable=0;fillColor=none;top=0;left=0;bottom=0;right=0;editable=1;overflow=hidden;whiteSpace=wrap;html=1;fontSize=16;" parent="oAILpBnuyXSPx2heT35A-70" vertex="1">
          <mxGeometry width="30" height="39" as="geometry">
            <mxRectangle width="30" height="39" as="alternateBounds" />
          </mxGeometry>
        </mxCell>
        <mxCell id="oAILpBnuyXSPx2heT35A-72" value="&lt;b&gt;cost&lt;/b&gt;" style="shape=partialRectangle;connectable=0;fillColor=none;top=0;left=0;bottom=0;right=0;align=left;spacingLeft=6;overflow=hidden;whiteSpace=wrap;html=1;fontSize=16;" parent="oAILpBnuyXSPx2heT35A-70" vertex="1">
          <mxGeometry x="30" width="250" height="39" as="geometry">
            <mxRectangle width="250" height="39" as="alternateBounds" />
          </mxGeometry>
        </mxCell>
        <mxCell id="oAILpBnuyXSPx2heT35A-73" value="" style="shape=tableRow;horizontal=0;startSize=0;swimlaneHead=0;swimlaneBody=0;fillColor=none;collapsible=0;dropTarget=0;points=[[0,0.5],[1,0.5]];portConstraint=eastwest;top=0;left=0;right=0;bottom=0;fontSize=16;" parent="oAILpBnuyXSPx2heT35A-45" vertex="1">
          <mxGeometry y="470" width="280" height="39" as="geometry" />
        </mxCell>
        <mxCell id="oAILpBnuyXSPx2heT35A-74" value="" style="shape=partialRectangle;connectable=0;fillColor=none;top=0;left=0;bottom=0;right=0;editable=1;overflow=hidden;whiteSpace=wrap;html=1;fontSize=16;" parent="oAILpBnuyXSPx2heT35A-73" vertex="1">
          <mxGeometry width="30" height="39" as="geometry">
            <mxRectangle width="30" height="39" as="alternateBounds" />
          </mxGeometry>
        </mxCell>
        <mxCell id="oAILpBnuyXSPx2heT35A-75" value="&lt;div&gt;&lt;b&gt;product_line&lt;/b&gt;&lt;/div&gt;" style="shape=partialRectangle;connectable=0;fillColor=none;top=0;left=0;bottom=0;right=0;align=left;spacingLeft=6;overflow=hidden;whiteSpace=wrap;html=1;fontSize=16;" parent="oAILpBnuyXSPx2heT35A-73" vertex="1">
          <mxGeometry x="30" width="250" height="39" as="geometry">
            <mxRectangle width="250" height="39" as="alternateBounds" />
          </mxGeometry>
        </mxCell>
        <mxCell id="oAILpBnuyXSPx2heT35A-107" value="" style="shape=tableRow;horizontal=0;startSize=0;swimlaneHead=0;swimlaneBody=0;fillColor=none;collapsible=0;dropTarget=0;points=[[0,0.5],[1,0.5]];portConstraint=eastwest;top=0;left=0;right=0;bottom=0;fontSize=16;" parent="oAILpBnuyXSPx2heT35A-45" vertex="1">
          <mxGeometry y="509" width="280" height="39" as="geometry" />
        </mxCell>
        <mxCell id="oAILpBnuyXSPx2heT35A-108" value="" style="shape=partialRectangle;connectable=0;fillColor=none;top=0;left=0;bottom=0;right=0;editable=1;overflow=hidden;whiteSpace=wrap;html=1;fontSize=16;" parent="oAILpBnuyXSPx2heT35A-107" vertex="1">
          <mxGeometry width="30" height="39" as="geometry">
            <mxRectangle width="30" height="39" as="alternateBounds" />
          </mxGeometry>
        </mxCell>
        <mxCell id="oAILpBnuyXSPx2heT35A-109" value="&lt;div&gt;&lt;b&gt;start_date&lt;/b&gt;&lt;/div&gt;" style="shape=partialRectangle;connectable=0;fillColor=none;top=0;left=0;bottom=0;right=0;align=left;spacingLeft=6;overflow=hidden;whiteSpace=wrap;html=1;fontSize=16;" parent="oAILpBnuyXSPx2heT35A-107" vertex="1">
          <mxGeometry x="30" width="250" height="39" as="geometry">
            <mxRectangle width="250" height="39" as="alternateBounds" />
          </mxGeometry>
        </mxCell>
        <mxCell id="oAILpBnuyXSPx2heT35A-76" value="&lt;font style=&quot;font-size: 16px;&quot;&gt;gold.fact_sales&lt;/font&gt;" style="shape=table;startSize=40;container=1;collapsible=1;childLayout=tableLayout;fixedRows=1;rowLines=0;fontStyle=1;align=center;resizeLast=1;html=1;fillColor=#dae8fc;strokeColor=#6c8ebf;rounded=1;strokeWidth=2;" parent="1" vertex="1">
          <mxGeometry x="-1190" y="160" width="240" height="440" as="geometry" />
        </mxCell>
        <mxCell id="oAILpBnuyXSPx2heT35A-80" value="" style="shape=tableRow;horizontal=0;startSize=0;swimlaneHead=0;swimlaneBody=0;fillColor=none;collapsible=0;dropTarget=0;points=[[0,0.5],[1,0.5]];portConstraint=eastwest;top=0;left=0;right=0;bottom=0;fontSize=16;" parent="oAILpBnuyXSPx2heT35A-76" vertex="1">
          <mxGeometry y="40" width="240" height="39" as="geometry" />
        </mxCell>
        <mxCell id="oAILpBnuyXSPx2heT35A-81" value="" style="shape=partialRectangle;connectable=0;fillColor=none;top=0;left=0;bottom=0;right=0;editable=1;overflow=hidden;whiteSpace=wrap;html=1;fontSize=16;" parent="oAILpBnuyXSPx2heT35A-80" vertex="1">
          <mxGeometry width="50" height="39" as="geometry">
            <mxRectangle width="50" height="39" as="alternateBounds" />
          </mxGeometry>
        </mxCell>
        <mxCell id="oAILpBnuyXSPx2heT35A-82" value="&lt;b&gt;order_number&lt;/b&gt;" style="shape=partialRectangle;connectable=0;fillColor=none;top=0;left=0;bottom=0;right=0;align=left;spacingLeft=6;overflow=hidden;whiteSpace=wrap;html=1;fontSize=16;" parent="oAILpBnuyXSPx2heT35A-80" vertex="1">
          <mxGeometry x="50" width="190" height="39" as="geometry">
            <mxRectangle width="190" height="39" as="alternateBounds" />
          </mxGeometry>
        </mxCell>
        <mxCell id="oAILpBnuyXSPx2heT35A-83" value="" style="shape=tableRow;horizontal=0;startSize=0;swimlaneHead=0;swimlaneBody=0;fillColor=none;collapsible=0;dropTarget=0;points=[[0,0.5],[1,0.5]];portConstraint=eastwest;top=0;left=0;right=0;bottom=0;fontSize=16;" parent="oAILpBnuyXSPx2heT35A-76" vertex="1">
          <mxGeometry y="79" width="240" height="39" as="geometry" />
        </mxCell>
        <mxCell id="oAILpBnuyXSPx2heT35A-84" value="&lt;b&gt;FK1&lt;/b&gt;" style="shape=partialRectangle;connectable=0;fillColor=none;top=0;left=0;bottom=0;right=0;editable=1;overflow=hidden;whiteSpace=wrap;html=1;fontSize=16;" parent="oAILpBnuyXSPx2heT35A-83" vertex="1">
          <mxGeometry width="50" height="39" as="geometry">
            <mxRectangle width="50" height="39" as="alternateBounds" />
          </mxGeometry>
        </mxCell>
        <mxCell id="oAILpBnuyXSPx2heT35A-85" value="&lt;b&gt;product_key&lt;/b&gt;" style="shape=partialRectangle;connectable=0;fillColor=none;top=0;left=0;bottom=0;right=0;align=left;spacingLeft=6;overflow=hidden;whiteSpace=wrap;html=1;fontSize=16;" parent="oAILpBnuyXSPx2heT35A-83" vertex="1">
          <mxGeometry x="50" width="190" height="39" as="geometry">
            <mxRectangle width="190" height="39" as="alternateBounds" />
          </mxGeometry>
        </mxCell>
        <mxCell id="oAILpBnuyXSPx2heT35A-110" value="" style="shape=tableRow;horizontal=0;startSize=0;swimlaneHead=0;swimlaneBody=0;fillColor=none;collapsible=0;dropTarget=0;points=[[0,0.5],[1,0.5]];portConstraint=eastwest;top=0;left=0;right=0;bottom=0;fontSize=16;" parent="oAILpBnuyXSPx2heT35A-76" vertex="1">
          <mxGeometry y="118" width="240" height="39" as="geometry" />
        </mxCell>
        <mxCell id="oAILpBnuyXSPx2heT35A-111" value="&lt;b&gt;FK2&lt;/b&gt;" style="shape=partialRectangle;connectable=0;fillColor=none;top=0;left=0;bottom=0;right=0;editable=1;overflow=hidden;whiteSpace=wrap;html=1;fontSize=16;" parent="oAILpBnuyXSPx2heT35A-110" vertex="1">
          <mxGeometry width="50" height="39" as="geometry">
            <mxRectangle width="50" height="39" as="alternateBounds" />
          </mxGeometry>
        </mxCell>
        <mxCell id="oAILpBnuyXSPx2heT35A-112" value="&lt;b&gt;customer_key&lt;/b&gt;" style="shape=partialRectangle;connectable=0;fillColor=none;top=0;left=0;bottom=0;right=0;align=left;spacingLeft=6;overflow=hidden;whiteSpace=wrap;html=1;fontSize=16;" parent="oAILpBnuyXSPx2heT35A-110" vertex="1">
          <mxGeometry x="50" width="190" height="39" as="geometry">
            <mxRectangle width="190" height="39" as="alternateBounds" />
          </mxGeometry>
        </mxCell>
        <mxCell id="oAILpBnuyXSPx2heT35A-86" value="" style="shape=tableRow;horizontal=0;startSize=0;swimlaneHead=0;swimlaneBody=0;fillColor=none;collapsible=0;dropTarget=0;points=[[0,0.5],[1,0.5]];portConstraint=eastwest;top=0;left=0;right=0;bottom=0;fontSize=16;" parent="oAILpBnuyXSPx2heT35A-76" vertex="1">
          <mxGeometry y="157" width="240" height="39" as="geometry" />
        </mxCell>
        <mxCell id="oAILpBnuyXSPx2heT35A-87" value="" style="shape=partialRectangle;connectable=0;fillColor=none;top=0;left=0;bottom=0;right=0;editable=1;overflow=hidden;whiteSpace=wrap;html=1;fontSize=16;" parent="oAILpBnuyXSPx2heT35A-86" vertex="1">
          <mxGeometry width="50" height="39" as="geometry">
            <mxRectangle width="50" height="39" as="alternateBounds" />
          </mxGeometry>
        </mxCell>
        <mxCell id="oAILpBnuyXSPx2heT35A-88" value="&lt;b&gt;order_date&lt;/b&gt;" style="shape=partialRectangle;connectable=0;fillColor=none;top=0;left=0;bottom=0;right=0;align=left;spacingLeft=6;overflow=hidden;whiteSpace=wrap;html=1;fontSize=16;" parent="oAILpBnuyXSPx2heT35A-86" vertex="1">
          <mxGeometry x="50" width="190" height="39" as="geometry">
            <mxRectangle width="190" height="39" as="alternateBounds" />
          </mxGeometry>
        </mxCell>
        <mxCell id="oAILpBnuyXSPx2heT35A-89" value="" style="shape=tableRow;horizontal=0;startSize=0;swimlaneHead=0;swimlaneBody=0;fillColor=none;collapsible=0;dropTarget=0;points=[[0,0.5],[1,0.5]];portConstraint=eastwest;top=0;left=0;right=0;bottom=0;fontSize=16;" parent="oAILpBnuyXSPx2heT35A-76" vertex="1">
          <mxGeometry y="196" width="240" height="39" as="geometry" />
        </mxCell>
        <mxCell id="oAILpBnuyXSPx2heT35A-90" value="" style="shape=partialRectangle;connectable=0;fillColor=none;top=0;left=0;bottom=0;right=0;editable=1;overflow=hidden;whiteSpace=wrap;html=1;fontSize=16;" parent="oAILpBnuyXSPx2heT35A-89" vertex="1">
          <mxGeometry width="50" height="39" as="geometry">
            <mxRectangle width="50" height="39" as="alternateBounds" />
          </mxGeometry>
        </mxCell>
        <mxCell id="oAILpBnuyXSPx2heT35A-91" value="&lt;b&gt;shipping_date&lt;/b&gt;" style="shape=partialRectangle;connectable=0;fillColor=none;top=0;left=0;bottom=0;right=0;align=left;spacingLeft=6;overflow=hidden;whiteSpace=wrap;html=1;fontSize=16;" parent="oAILpBnuyXSPx2heT35A-89" vertex="1">
          <mxGeometry x="50" width="190" height="39" as="geometry">
            <mxRectangle width="190" height="39" as="alternateBounds" />
          </mxGeometry>
        </mxCell>
        <mxCell id="oAILpBnuyXSPx2heT35A-92" value="" style="shape=tableRow;horizontal=0;startSize=0;swimlaneHead=0;swimlaneBody=0;fillColor=none;collapsible=0;dropTarget=0;points=[[0,0.5],[1,0.5]];portConstraint=eastwest;top=0;left=0;right=0;bottom=0;fontSize=16;" parent="oAILpBnuyXSPx2heT35A-76" vertex="1">
          <mxGeometry y="235" width="240" height="44" as="geometry" />
        </mxCell>
        <mxCell id="oAILpBnuyXSPx2heT35A-93" value="" style="shape=partialRectangle;connectable=0;fillColor=none;top=0;left=0;bottom=0;right=0;editable=1;overflow=hidden;whiteSpace=wrap;html=1;fontSize=16;" parent="oAILpBnuyXSPx2heT35A-92" vertex="1">
          <mxGeometry width="50" height="44" as="geometry">
            <mxRectangle width="50" height="44" as="alternateBounds" />
          </mxGeometry>
        </mxCell>
        <mxCell id="oAILpBnuyXSPx2heT35A-94" value="&lt;b&gt;due_date&lt;/b&gt;" style="shape=partialRectangle;connectable=0;fillColor=none;top=0;left=0;bottom=0;right=0;align=left;spacingLeft=6;overflow=hidden;whiteSpace=wrap;html=1;fontSize=16;" parent="oAILpBnuyXSPx2heT35A-92" vertex="1">
          <mxGeometry x="50" width="190" height="44" as="geometry">
            <mxRectangle width="190" height="44" as="alternateBounds" />
          </mxGeometry>
        </mxCell>
        <mxCell id="oAILpBnuyXSPx2heT35A-95" value="" style="shape=tableRow;horizontal=0;startSize=0;swimlaneHead=0;swimlaneBody=0;fillColor=none;collapsible=0;dropTarget=0;points=[[0,0.5],[1,0.5]];portConstraint=eastwest;top=0;left=0;right=0;bottom=0;fontSize=16;" parent="oAILpBnuyXSPx2heT35A-76" vertex="1">
          <mxGeometry y="279" width="240" height="39" as="geometry" />
        </mxCell>
        <mxCell id="oAILpBnuyXSPx2heT35A-96" value="" style="shape=partialRectangle;connectable=0;fillColor=none;top=0;left=0;bottom=0;right=0;editable=1;overflow=hidden;whiteSpace=wrap;html=1;fontSize=16;" parent="oAILpBnuyXSPx2heT35A-95" vertex="1">
          <mxGeometry width="50" height="39" as="geometry">
            <mxRectangle width="50" height="39" as="alternateBounds" />
          </mxGeometry>
        </mxCell>
        <mxCell id="oAILpBnuyXSPx2heT35A-97" value="&lt;b&gt;sales_amount&lt;/b&gt;" style="shape=partialRectangle;connectable=0;fillColor=none;top=0;left=0;bottom=0;right=0;align=left;spacingLeft=6;overflow=hidden;whiteSpace=wrap;html=1;fontSize=16;" parent="oAILpBnuyXSPx2heT35A-95" vertex="1">
          <mxGeometry x="50" width="190" height="39" as="geometry">
            <mxRectangle width="190" height="39" as="alternateBounds" />
          </mxGeometry>
        </mxCell>
        <mxCell id="oAILpBnuyXSPx2heT35A-98" value="" style="shape=tableRow;horizontal=0;startSize=0;swimlaneHead=0;swimlaneBody=0;fillColor=none;collapsible=0;dropTarget=0;points=[[0,0.5],[1,0.5]];portConstraint=eastwest;top=0;left=0;right=0;bottom=0;fontSize=16;" parent="oAILpBnuyXSPx2heT35A-76" vertex="1">
          <mxGeometry y="318" width="240" height="39" as="geometry" />
        </mxCell>
        <mxCell id="oAILpBnuyXSPx2heT35A-99" value="" style="shape=partialRectangle;connectable=0;fillColor=none;top=0;left=0;bottom=0;right=0;editable=1;overflow=hidden;whiteSpace=wrap;html=1;fontSize=16;" parent="oAILpBnuyXSPx2heT35A-98" vertex="1">
          <mxGeometry width="50" height="39" as="geometry">
            <mxRectangle width="50" height="39" as="alternateBounds" />
          </mxGeometry>
        </mxCell>
        <mxCell id="oAILpBnuyXSPx2heT35A-100" value="&lt;b&gt;quantity&lt;/b&gt;" style="shape=partialRectangle;connectable=0;fillColor=none;top=0;left=0;bottom=0;right=0;align=left;spacingLeft=6;overflow=hidden;whiteSpace=wrap;html=1;fontSize=16;" parent="oAILpBnuyXSPx2heT35A-98" vertex="1">
          <mxGeometry x="50" width="190" height="39" as="geometry">
            <mxRectangle width="190" height="39" as="alternateBounds" />
          </mxGeometry>
        </mxCell>
        <mxCell id="oAILpBnuyXSPx2heT35A-101" value="" style="shape=tableRow;horizontal=0;startSize=0;swimlaneHead=0;swimlaneBody=0;fillColor=none;collapsible=0;dropTarget=0;points=[[0,0.5],[1,0.5]];portConstraint=eastwest;top=0;left=0;right=0;bottom=0;fontSize=16;" parent="oAILpBnuyXSPx2heT35A-76" vertex="1">
          <mxGeometry y="357" width="240" height="39" as="geometry" />
        </mxCell>
        <mxCell id="oAILpBnuyXSPx2heT35A-102" value="" style="shape=partialRectangle;connectable=0;fillColor=none;top=0;left=0;bottom=0;right=0;editable=1;overflow=hidden;whiteSpace=wrap;html=1;fontSize=16;" parent="oAILpBnuyXSPx2heT35A-101" vertex="1">
          <mxGeometry width="50" height="39" as="geometry">
            <mxRectangle width="50" height="39" as="alternateBounds" />
          </mxGeometry>
        </mxCell>
        <mxCell id="oAILpBnuyXSPx2heT35A-103" value="&lt;div&gt;&lt;b&gt;price&lt;/b&gt;&lt;/div&gt;" style="shape=partialRectangle;connectable=0;fillColor=none;top=0;left=0;bottom=0;right=0;align=left;spacingLeft=6;overflow=hidden;whiteSpace=wrap;html=1;fontSize=16;" parent="oAILpBnuyXSPx2heT35A-101" vertex="1">
          <mxGeometry x="50" width="190" height="39" as="geometry">
            <mxRectangle width="190" height="39" as="alternateBounds" />
          </mxGeometry>
        </mxCell>
        <mxCell id="oAILpBnuyXSPx2heT35A-104" value="" style="shape=tableRow;horizontal=0;startSize=0;swimlaneHead=0;swimlaneBody=0;fillColor=none;collapsible=0;dropTarget=0;points=[[0,0.5],[1,0.5]];portConstraint=eastwest;top=0;left=0;right=0;bottom=0;fontSize=16;" parent="oAILpBnuyXSPx2heT35A-76" vertex="1">
          <mxGeometry y="396" width="240" height="39" as="geometry" />
        </mxCell>
        <mxCell id="oAILpBnuyXSPx2heT35A-105" value="" style="shape=partialRectangle;connectable=0;fillColor=none;top=0;left=0;bottom=0;right=0;editable=1;overflow=hidden;whiteSpace=wrap;html=1;fontSize=16;" parent="oAILpBnuyXSPx2heT35A-104" vertex="1">
          <mxGeometry width="50" height="39" as="geometry">
            <mxRectangle width="50" height="39" as="alternateBounds" />
          </mxGeometry>
        </mxCell>
        <mxCell id="oAILpBnuyXSPx2heT35A-106" value="" style="shape=partialRectangle;connectable=0;fillColor=none;top=0;left=0;bottom=0;right=0;align=left;spacingLeft=6;overflow=hidden;whiteSpace=wrap;html=1;fontSize=16;" parent="oAILpBnuyXSPx2heT35A-104" vertex="1">
          <mxGeometry x="50" width="190" height="39" as="geometry">
            <mxRectangle width="190" height="39" as="alternateBounds" />
          </mxGeometry>
        </mxCell>
        <mxCell id="oAILpBnuyXSPx2heT35A-116" value="" style="edgeStyle=entityRelationEdgeStyle;fontSize=12;html=1;endArrow=ERzeroToMany;startArrow=ERmandOne;rounded=0;entryX=0;entryY=0.5;entryDx=0;entryDy=0;exitX=1;exitY=0.5;exitDx=0;exitDy=0;" parent="1" source="oAILpBnuyXSPx2heT35A-15" target="oAILpBnuyXSPx2heT35A-110" edge="1">
          <mxGeometry width="100" height="100" relative="1" as="geometry">
            <mxPoint x="299.98" y="290" as="sourcePoint" />
            <mxPoint x="380.00000000000045" y="337.9860000000001" as="targetPoint" />
            <Array as="points">
              <mxPoint x="359.98" y="400" />
              <mxPoint x="370" y="350" />
            </Array>
          </mxGeometry>
        </mxCell>
        <mxCell id="oAILpBnuyXSPx2heT35A-153" value="&lt;h1 style=&quot;margin-top: 0px;&quot;&gt;&lt;span style=&quot;background-color: transparent; color: light-dark(rgb(0, 0, 0), rgb(255, 255, 255));&quot;&gt;&lt;font style=&quot;font-size: 18px;&quot;&gt;&lt;u&gt;Sales Calculation&lt;/u&gt;&lt;/font&gt;&lt;/span&gt;&lt;/h1&gt;&lt;h1 style=&quot;margin-top: 0px;&quot;&gt;&lt;span style=&quot;background-color: transparent; color: light-dark(rgb(0, 0, 0), rgb(255, 255, 255));&quot;&gt;&lt;font style=&quot;font-size: 14px;&quot;&gt;Sales = Quantity * Price&lt;/font&gt;&lt;/span&gt;&lt;/h1&gt;" style="text;html=1;whiteSpace=wrap;overflow=hidden;rounded=0;" parent="1" vertex="1">
          <mxGeometry x="-1055" y="640" width="190" height="80" as="geometry" />
        </mxCell>
        <mxCell id="eyJGhXYJmyUUGj0ul0_u-3" value="" style="edgeStyle=entityRelationEdgeStyle;fontSize=12;html=1;endArrow=ERzeroToMany;startArrow=ERmandOne;rounded=0;entryX=1;entryY=0.5;entryDx=0;entryDy=0;exitX=0;exitY=0.5;exitDx=0;exitDy=0;" parent="1" source="oAILpBnuyXSPx2heT35A-46" target="oAILpBnuyXSPx2heT35A-83" edge="1">
          <mxGeometry width="100" height="100" relative="1" as="geometry">
            <mxPoint x="110" y="320" as="sourcePoint" />
            <mxPoint y="280" as="targetPoint" />
          </mxGeometry>
        </mxCell>
        <mxCell id="eyJGhXYJmyUUGj0ul0_u-8" value="" style="endArrow=none;dashed=1;html=1;dashPattern=1 3;strokeWidth=2;rounded=0;" parent="1" source="oAILpBnuyXSPx2heT35A-95" target="oAILpBnuyXSPx2heT35A-153" edge="1">
          <mxGeometry width="50" height="50" relative="1" as="geometry">
            <mxPoint x="-170" y="750" as="sourcePoint" />
            <mxPoint x="-120" y="700" as="targetPoint" />
          </mxGeometry>
        </mxCell>
        <mxCell id="K4poMJENU4GUVkRYHdyQ-1" value="" style="endArrow=classic;html=1;rounded=0;" edge="1" parent="1">
          <mxGeometry width="50" height="50" relative="1" as="geometry">
            <mxPoint x="-1690" y="480" as="sourcePoint" />
            <mxPoint x="-1600" y="460" as="targetPoint" />
          </mxGeometry>
        </mxCell>
        <mxCell id="K4poMJENU4GUVkRYHdyQ-2" value="&lt;b&gt;marital_status&lt;/b&gt;&lt;div style=&quot;text-align: left;&quot;&gt;- married&lt;/div&gt;&lt;div style=&quot;text-align: left;&quot;&gt;- Single&lt;/div&gt;" style="whiteSpace=wrap;html=1;" vertex="1" parent="1">
          <mxGeometry x="-1780" y="480" width="120" height="60" as="geometry" />
        </mxCell>
        <mxCell id="K4poMJENU4GUVkRYHdyQ-3" value="&lt;b&gt;maintenance&lt;/b&gt;&lt;br&gt;&lt;div style=&quot;text-align: left;&quot;&gt;- Yes&lt;/div&gt;&lt;div style=&quot;text-align: left;&quot;&gt;- No&lt;/div&gt;" style="whiteSpace=wrap;html=1;" vertex="1" parent="1">
          <mxGeometry x="-500" y="590" width="120" height="60" as="geometry" />
        </mxCell>
        <mxCell id="K4poMJENU4GUVkRYHdyQ-4" value="" style="endArrow=classic;html=1;rounded=0;exitX=0;exitY=0.5;exitDx=0;exitDy=0;entryX=0.636;entryY=1;entryDx=0;entryDy=0;entryPerimeter=0;" edge="1" parent="1" source="K4poMJENU4GUVkRYHdyQ-3">
          <mxGeometry width="50" height="50" relative="1" as="geometry">
            <mxPoint x="-510.00000000000006" y="619" as="sourcePoint" />
            <mxPoint x="-641.96" y="581" as="targetPoint" />
          </mxGeometry>
        </mxCell>
      </root>
    </mxGraphModel>
  </diagram>
</mxfile>
